<?xml version="1.0" standalone="no"?>
<!DOCTYPE svg PUBLIC "-//W3C//DTD SVG 20010904//EN"
 "http://www.w3.org/TR/2001/REC-SVG-20010904/DTD/svg10.dtd">
<svg version="1.0" xmlns="http://www.w3.org/2000/svg"
 width="512.000000pt" height="512.000000pt" viewBox="0 0 512.000000 512.000000"
 preserveAspectRatio="xMidYMid meet">
<metadata>
Created by potrace 1.11, written by Peter Selinger 2001-2013
</metadata>
<g transform="translate(0.000000,512.000000) scale(0.100000,-0.100000)"
fill="#000000" stroke="none">
<path d="M2331 5109 c-470 -42 -929 -220 -1320 -512 -123 -92 -396 -364 -488
-487 -696 -932 -696 -2174 1 -3099 92 -123 304 -342 425 -439 945 -760 2277
-760 3222 0 196 158 418 408 557 629 327 520 459 1179 356 1779 -70 410 -234
791 -487 1130 -92 122 -365 395 -487 487 -521 388 -1146 568 -1779 512z m364
-843 c220 -58 341 -256 305 -500 -19 -130 -95 -307 -202 -472 -64 -97 -123
-118 -164 -57 -26 39 -24 126 3 178 12 23 38 88 58 145 81 230 51 380 -83 421
-76 22 -168 -27 -215 -115 -19 -36 -22 -56 -21 -166 0 -116 3 -132 33 -215 61
-166 52 -150 565 -900 135 -198 253 -361 260 -363 8 -2 135 65 282 149 148 84
359 203 469 265 l200 113 16 109 c50 334 173 507 388 544 60 10 78 9 132 -6
174 -48 251 -200 186 -368 -58 -151 -170 -240 -437 -349 l-115 -46 -26 -99
c-15 -55 -66 -247 -113 -427 -48 -181 -91 -338 -97 -348 -13 -26 -35 -24 -55
6 -15 23 -13 42 26 297 23 150 50 322 61 382 10 61 16 112 14 114 -6 7 -86
-30 -395 -181 -394 -192 -514 -247 -536 -247 -28 0 -35 7 -354 418 -157 202
-293 368 -303 370 -12 3 -78 -90 -257 -360 -132 -200 -252 -373 -267 -386 -33
-30 -51 -26 -201 45 -64 31 -295 138 -512 239 l-395 183 -3 -29 c-2 -15 8
-131 22 -257 58 -515 75 -734 62 -770 -7 -16 -9 -16 -21 7 -13 24 -25 87 -159
779 -36 183 -66 335 -68 336 -2 2 -53 25 -115 53 -235 105 -360 198 -415 310
-30 61 -33 74 -33 162 0 86 3 99 28 143 76 129 243 171 391 98 164 -80 246
-238 278 -530 l13 -115 110 -64 c61 -36 124 -72 140 -82 17 -9 176 -102 355
-207 438 -256 421 -247 441 -225 54 56 464 756 475 810 4 22 -12 53 -89 169
-52 77 -111 175 -131 217 -176 370 -84 710 219 815 70 24 176 27 250 7z m-997
-842 c57 -28 89 -64 124 -140 35 -75 32 -243 -5 -377 l-27 -99 95 -120 c87
-109 106 -144 89 -161 -12 -12 -75 32 -177 120 -20 18 -41 33 -45 33 -5 0 -25
-36 -45 -81 -50 -112 -62 -103 -62 44 l0 116 -92 91 c-157 154 -213 250 -213
363 0 193 178 298 358 211z m1983 -32 c40 -16 88 -61 112 -106 33 -63 31 -183
-5 -252 -39 -75 -104 -149 -212 -243 l-96 -84 6 -81 c7 -101 -5 -125 -41 -82
-13 16 -31 46 -40 67 l-17 37 -91 -59 c-148 -96 -156 -75 -31 79 47 58 83 110
80 117 -2 7 -12 58 -21 114 -18 108 -16 224 4 293 27 88 122 184 205 207 37
10 111 6 147 -7z m-817 -1567 c463 -61 852 -217 1143 -458 111 -91 109 -106
-26 -187 -50 -29 -91 -54 -91 -56 0 -1 16 -18 36 -38 42 -42 42 -70 -1 -74
-23 -2 -41 6 -73 34 -48 40 -43 41 -157 -10 -165 -73 -429 -134 -750 -173
-176 -21 -682 -24 -855 -4 -379 43 -675 120 -893 233 -82 43 -103 72 -76 105
22 26 140 100 247 153 222 112 500 189 792 220 125 13 411 13 541 0 410 -41
794 -169 1073 -356 l50 -33 50 27 c28 15 51 34 51 42 0 34 -223 179 -390 253
-335 149 -718 219 -1145 212 -350 -7 -656 -62 -922 -167 -121 -48 -162 -53
-166 -22 -4 27 7 35 114 87 235 116 569 201 879 225 153 12 427 6 569 -13z
m1216 -166 c19 -34 -34 -188 -56 -166 -3 3 -5 34 -5 69 0 98 33 150 61 97z
m-2852 -186 c4 -24 -1 -27 -137 -113 -185 -117 -121 -19 73 112 46 31 60 31
64 1z"/>
<path d="M499 3231 c-50 -51 -33 -141 38 -200 39 -32 167 -106 202 -116 23 -7
23 -6 17 41 -33 229 -163 368 -257 275z"/>
<path d="M4585 3173 c-40 -10 -84 -55 -114 -116 -35 -70 -72 -208 -61 -220 12
-14 209 92 251 134 61 61 64 140 9 180 -30 21 -58 28 -85 22z"/>
<path d="M1553 3250 c-61 -37 -57 -111 12 -210 54 -77 113 -145 120 -138 13
13 27 131 23 198 -5 87 -26 133 -68 155 -38 19 -48 19 -87 -5z"/>
<path d="M3509 3205 c-46 -25 -64 -85 -64 -216 0 -65 3 -121 8 -125 19 -19
170 164 188 229 24 91 -52 156 -132 112z"/>
<path d="M2435 1433 c-221 -9 -490 -55 -660 -115 -145 -51 -305 -128 -305
-147 0 -17 30 -32 148 -71 422 -141 1070 -179 1601 -94 198 31 501 113 501
135 0 23 -252 134 -413 183 -254 77 -597 120 -872 109z"/>
</g>
</svg>
